<?xml version="1.0" encoding="utf-8"?>
<!-- Generator: Adobe Illustrator 17.0.0, SVG Export Plug-In . SVG Version: 6.00 Build 0)  -->
<!DOCTYPE svg PUBLIC "-//W3C//DTD SVG 1.1//EN" "http://www.w3.org/Graphics/SVG/1.1/DTD/svg11.dtd">
<svg version="1.1" id="Layer_1" xmlns="http://www.w3.org/2000/svg" xmlns:xlink="http://www.w3.org/1999/xlink" x="0px" y="0px"
	 width="56.69px" height="56.69px" viewBox="0 0 56.69 56.69" enable-background="new 0 0 56.69 56.69" xml:space="preserve">
<g id="hamburger">
</g>
<g id="eye">
	<path fill="none" stroke="#535353" stroke-width="2" stroke-miterlimit="10" d="M2.819,17.334c0.014,0.164,0.053,0.326,0.116,0.48
		c0.004,0.013,0.004,0.025,0.009,0.039c0.016,0.035,0.044,0.061,0.059,0.095c0.036,0.069,0.063,0.142,0.111,0.208l24.537,34.821
		c0.062,0.09,0.159,0.132,0.237,0.206c0.063,0.062,0.106,0.138,0.181,0.191c0.029,0.021,0.063,0.027,0.094,0.047
		c0.072,0.044,0.141,0.076,0.22,0.108c0.192,0.081,0.389,0.135,0.591,0.141c0.009,0,0.018,0.007,0.03,0.007
		c0.002,0,0.006-0.002,0.006-0.002c0.005,0,0.008,0.002,0.012,0.002c0.012,0,0.021-0.007,0.031-0.007
		c0.201-0.005,0.4-0.058,0.59-0.141c0.076-0.03,0.145-0.064,0.216-0.106c0.03-0.018,0.065-0.025,0.095-0.047
		c0.076-0.053,0.121-0.132,0.184-0.195c0.076-0.072,0.171-0.113,0.233-0.201L54.91,18.264c0.193-0.272,0.284-0.591,0.291-0.913
		c0.005-0.062-0.005-0.122-0.007-0.183c-0.004-0.054-0.004-0.109-0.016-0.164c-0.053-0.428-0.252-0.832-0.611-1.109L42.042,6.259
		c-0.294-0.225-0.644-0.347-1.028-0.343c-0.235,0.003-11.797,0-11.797,0s-11.951,0.005-12.199,0c-0.414,0-0.74,0.115-1.037,0.343
		L3.457,15.894c-0.024,0.018-0.037,0.045-0.059,0.065c-0.097,0.083-0.187,0.174-0.261,0.28c-0.035,0.049-0.064,0.098-0.093,0.149
		C3.02,16.43,2.988,16.465,2.967,16.51c-0.026,0.055-0.036,0.115-0.053,0.173c-0.02,0.055-0.041,0.109-0.052,0.164
		c-0.03,0.13-0.041,0.26-0.038,0.391C2.822,17.271,2.816,17.302,2.819,17.334z"/>
</g>
<g id="hamburger_1_">
</g>
<polyline fill="none" stroke="#535353" stroke-width="2" stroke-miterlimit="10" points="17.019,5.916 14.095,17.22 28.973,53.667 
	"/>
<polyline fill="none" stroke="#535353" stroke-width="2" stroke-miterlimit="10" points="41.171,5.916 44.095,17.22 29.217,53.667 
	"/>
<line fill="none" stroke="#535353" stroke-width="2" stroke-miterlimit="10" x1="29.016" y1="5.311" x2="28.973" y2="53.345"/>
<line fill="none" stroke="#535353" stroke-width="2" stroke-miterlimit="10" x1="2.819" y1="17.334" x2="55.178" y2="17.004"/>
</svg>
